<svg width="931" height="220" viewBox="0 0 931 220" fill="none" xmlns="http://www.w3.org/2000/svg">
<path d="M331 177.942V95.262C331 91.861 334.342 11.843 331.25 2.12799L330.823 0.791992L329.462 1.12599C315.381 4.58499 311.545 28.085 309.907 38.12C309.8 38.78 309.701 39.382 309.611 39.911C308.063 48.979 309.634 67.578 312.013 78.598C313.806 86.917 321.057 107.043 321.999 109.646V177.771C320.563 180.298 314.462 194.959 314.462 203.959C314.462 214.224 325.147 218.691 325.602 218.877L326.126 219.091L326.661 218.903C327.125 218.741 338.01 214.815 338.01 203.959C338.011 194.45 332 179.989 331 177.942Z" fill="#666666"/>
<path d="M22 90.939C25.774 89.375 36 84.264 36 62.403V22.014C36 20.357 34.498 19.014 32.84 19.014C31.184 19.014 30 20.357 30 22.014V62.406L25 62.409V22.014C25 20.357 23.657 19.014 22 19.014C20.343 19.014 19 20.357 19 22.014V62.411L16 62.413V22.014C16 20.357 14.657 19.014 13 19.014C11.343 19.014 9.99999 20.357 9.99999 22.014V62.417L5.99999 62.419V22.014C5.99999 20.357 4.65699 19.014 2.99999 19.014C1.34299 19.014 -7.49729e-06 20.357 -7.49729e-06 22.014V62.423C-0.0840075 83.764 10.863 88.927 14 90.785V177.846C12.867 180.244 6.08299 194.98 6.08299 203.973C6.08299 214.291 18.389 218.733 18.912 218.916L19.407 219.09L19.903 218.917C20.367 218.756 31.263 214.829 31.263 203.973C31.263 194.485 23.414 180.27 21.999 177.785L22 90.939Z" fill="#666666"/>
<path d="M172.349 5.925C115.371 5.925 69.017 52.279 69.017 109.256C69.017 166.234 115.371 212.589 172.349 212.589C229.326 212.589 275.68 166.234 275.68 109.256C275.68 52.279 229.326 5.925 172.349 5.925Z" fill="#F15A24"/>
<path d="M172.349 176.29C209.371 176.29 239.383 146.278 239.383 109.256C239.383 72.2341 209.371 42.222 172.349 42.222C135.327 42.222 105.315 72.2341 105.315 109.256C105.315 146.278 135.327 176.29 172.349 176.29Z" stroke="white" stroke-width="7.3128" stroke-miterlimit="10" stroke-linecap="round"/>
<path d="M393.849 169V67.1818H434.02C441.709 67.1818 448.272 68.5573 453.707 71.3082C459.176 74.026 463.336 77.8873 466.186 82.892C469.07 87.8636 470.511 93.7135 470.511 100.442C470.511 107.203 469.053 113.02 466.136 117.892C463.22 122.731 458.994 126.443 453.459 129.028C447.957 131.614 441.295 132.906 433.473 132.906H406.577V115.605H429.993C434.103 115.605 437.517 115.042 440.234 113.915C442.952 112.788 444.974 111.098 446.3 108.844C447.659 106.59 448.338 103.789 448.338 100.442C448.338 97.0611 447.659 94.2107 446.3 91.8906C444.974 89.5705 442.936 87.8139 440.185 86.6207C437.467 85.3944 434.036 84.7812 429.893 84.7812H415.376V169H393.849ZM448.835 122.665L474.141 169H450.376L425.618 122.665H448.835ZM518.897 170.491C511.042 170.491 504.281 168.901 498.613 165.719C492.979 162.504 488.637 157.963 485.588 152.097C482.538 146.197 481.014 139.22 481.014 131.166C481.014 123.311 482.538 116.417 485.588 110.484C488.637 104.552 492.929 99.928 498.464 96.6136C504.032 93.2992 510.562 91.642 518.052 91.642C523.09 91.642 527.78 92.4541 532.122 94.0781C536.497 95.669 540.308 98.072 543.556 101.287C546.838 104.502 549.39 108.545 551.213 113.418C553.036 118.257 553.947 123.924 553.947 130.42V136.237H489.466V123.112H534.011C534.011 120.063 533.348 117.362 532.022 115.009C530.697 112.655 528.857 110.816 526.504 109.49C524.184 108.131 521.483 107.452 518.4 107.452C515.185 107.452 512.335 108.197 509.849 109.689C507.396 111.147 505.474 113.119 504.082 115.605C502.69 118.058 501.977 120.792 501.944 123.808V136.287C501.944 140.065 502.64 143.33 504.032 146.081C505.458 148.832 507.463 150.953 510.048 152.445C512.633 153.936 515.699 154.682 519.245 154.682C521.599 154.682 523.753 154.35 525.708 153.688C527.664 153.025 529.338 152.03 530.73 150.705C532.122 149.379 533.182 147.755 533.912 145.832L553.5 147.125C552.505 151.831 550.467 155.941 547.385 159.455C544.335 162.935 540.391 165.652 535.552 167.608C530.746 169.53 525.195 170.491 518.897 170.491ZM602.271 170.491C594.449 170.491 587.721 168.834 582.086 165.52C576.485 162.172 572.176 157.532 569.16 151.599C566.177 145.667 564.686 138.839 564.686 131.116C564.686 123.295 566.194 116.434 569.21 110.534C572.259 104.601 576.584 99.9777 582.186 96.6633C587.787 93.3158 594.449 91.642 602.172 91.642C608.833 91.642 614.667 92.8518 619.672 95.2713C624.676 97.6908 628.637 101.088 631.554 105.463C634.47 109.838 636.078 114.975 636.376 120.875H616.39C615.827 117.063 614.335 113.998 611.916 111.678C609.529 109.324 606.397 108.148 602.52 108.148C599.238 108.148 596.371 109.043 593.919 110.832C591.499 112.589 589.61 115.158 588.251 118.538C586.892 121.919 586.213 126.012 586.213 130.818C586.213 135.69 586.876 139.833 588.201 143.247C589.56 146.661 591.466 149.263 593.919 151.053C596.371 152.842 599.238 153.737 602.52 153.737C604.939 153.737 607.11 153.24 609.032 152.246C610.988 151.251 612.595 149.81 613.855 147.92C615.147 145.998 615.993 143.695 616.39 141.01H636.376C636.045 146.843 634.454 151.981 631.603 156.422C628.786 160.83 624.892 164.277 619.92 166.763C614.949 169.249 609.065 170.491 602.271 170.491ZM649.936 169V92.6364H671.115V169H649.936ZM660.575 82.7926C657.427 82.7926 654.725 81.7486 652.472 79.6605C650.251 77.5393 649.141 75.0038 649.141 72.054C649.141 69.1373 650.251 66.6349 652.472 64.5469C654.725 62.4257 657.427 61.3651 660.575 61.3651C663.724 61.3651 666.409 62.4257 668.629 64.5469C670.883 66.6349 672.01 69.1373 672.01 72.054C672.01 75.0038 670.883 77.5393 668.629 79.6605C666.409 81.7486 663.724 82.7926 660.575 82.7926ZM688.081 197.636V92.6364H708.961V105.463H709.906C710.834 103.408 712.176 101.32 713.933 99.1989C715.723 97.0445 718.043 95.2547 720.893 93.8295C723.777 92.3712 727.356 91.642 731.632 91.642C737.2 91.642 742.337 93.1004 747.044 96.017C751.75 98.9006 755.512 103.259 758.329 109.092C761.146 114.893 762.555 122.168 762.555 130.918C762.555 139.436 761.18 146.628 758.429 152.494C755.711 158.328 751.999 162.752 747.292 165.768C742.619 168.751 737.382 170.243 731.582 170.243C727.472 170.243 723.975 169.563 721.092 168.205C718.242 166.846 715.905 165.139 714.082 163.084C712.259 160.996 710.867 158.891 709.906 156.77H709.26V197.636H688.081ZM708.812 130.818C708.812 135.359 709.442 139.32 710.701 142.7C711.961 146.081 713.784 148.716 716.17 150.605C718.556 152.461 721.457 153.389 724.87 153.389C728.317 153.389 731.234 152.445 733.62 150.555C736.007 148.633 737.813 145.982 739.039 142.601C740.299 139.187 740.929 135.259 740.929 130.818C740.929 126.41 740.315 122.532 739.089 119.185C737.863 115.837 736.056 113.219 733.67 111.33C731.284 109.44 728.35 108.496 724.87 108.496C721.423 108.496 718.507 109.407 716.12 111.23C713.767 113.053 711.961 115.638 710.701 118.986C709.442 122.333 708.812 126.277 708.812 130.818ZM811.475 170.491C803.62 170.491 796.859 168.901 791.191 165.719C785.557 162.504 781.215 157.963 778.166 152.097C775.117 146.197 773.592 139.22 773.592 131.166C773.592 123.311 775.117 116.417 778.166 110.484C781.215 104.552 785.507 99.928 791.042 96.6136C796.61 93.2992 803.14 91.642 810.63 91.642C815.668 91.642 820.358 92.4541 824.7 94.0781C829.075 95.669 832.886 98.072 836.135 101.287C839.416 104.502 841.968 108.545 843.791 113.418C845.614 118.257 846.525 123.924 846.525 130.42V136.237H782.044V123.112H826.589C826.589 120.063 825.926 117.362 824.6 115.009C823.275 112.655 821.435 110.816 819.082 109.49C816.762 108.131 814.061 107.452 810.978 107.452C807.763 107.452 804.913 108.197 802.427 109.689C799.975 111.147 798.052 113.119 796.66 115.605C795.268 118.058 794.556 120.792 794.522 123.808V136.287C794.522 140.065 795.218 143.33 796.61 146.081C798.036 148.832 800.041 150.953 802.626 152.445C805.211 153.936 808.277 154.682 811.824 154.682C814.177 154.682 816.331 154.35 818.287 153.688C820.242 153.025 821.916 152.03 823.308 150.705C824.7 149.379 825.761 147.755 826.49 145.832L846.078 147.125C845.083 151.831 843.045 155.941 839.963 159.455C836.913 162.935 832.969 165.652 828.13 167.608C823.324 169.53 817.773 170.491 811.475 170.491ZM923.883 114.412L904.494 115.605C904.163 113.948 903.45 112.456 902.356 111.131C901.262 109.772 899.821 108.695 898.031 107.899C896.274 107.071 894.17 106.656 891.717 106.656C888.436 106.656 885.668 107.352 883.414 108.744C881.161 110.103 880.034 111.926 880.034 114.213C880.034 116.036 880.763 117.577 882.221 118.837C883.68 120.096 886.182 121.107 889.728 121.869L903.549 124.653C910.974 126.178 916.509 128.631 920.154 132.011C923.8 135.392 925.623 139.833 925.623 145.335C925.623 150.34 924.148 154.732 921.199 158.51C918.282 162.288 914.271 165.238 909.167 167.359C904.096 169.447 898.246 170.491 891.618 170.491C881.509 170.491 873.455 168.387 867.456 164.178C861.49 159.935 857.993 154.168 856.966 146.876L877.797 145.783C878.426 148.865 879.951 151.218 882.37 152.842C884.79 154.433 887.889 155.229 891.667 155.229C895.379 155.229 898.362 154.516 900.616 153.091C902.903 151.633 904.063 149.76 904.096 147.473C904.063 145.551 903.251 143.976 901.66 142.75C900.069 141.491 897.617 140.529 894.302 139.866L881.078 137.232C873.62 135.74 868.069 133.155 864.423 129.476C860.81 125.797 859.004 121.107 859.004 115.406C859.004 110.501 860.33 106.275 862.981 102.729C865.666 99.1823 869.428 96.4479 874.267 94.5256C879.139 92.6032 884.84 91.642 891.369 91.642C901.014 91.642 908.604 93.6804 914.139 97.7571C919.707 101.834 922.955 107.385 923.883 114.412Z" fill="#666666"/>
</svg>
